<?xml version="1.0" encoding="UTF-8" standalone="no"?>
<!-- Created with Inkscape (http://www.inkscape.org/) -->

<svg
   width="800mm"
   height="200mm"
   viewBox="0 0 800 200"
   version="1.1"
   id="svg1"
   inkscape:version="1.3.1 (91b66b0783, 2023-11-16)"
   sodipodi:docname="EIS.svg"
   xmlns:inkscape="http://www.inkscape.org/namespaces/inkscape"
   xmlns:sodipodi="http://sodipodi.sourceforge.net/DTD/sodipodi-0.dtd"
   xmlns="http://www.w3.org/2000/svg"
   xmlns:svg="http://www.w3.org/2000/svg">
  <sodipodi:namedview
     id="namedview1"
     pagecolor="#505050"
     bordercolor="#ffffff"
     borderopacity="1"
     inkscape:showpageshadow="0"
     inkscape:pageopacity="0"
     inkscape:pagecheckerboard="1"
     inkscape:deskcolor="#505050"
     inkscape:document-units="mm"
     inkscape:zoom="1.4142136"
     inkscape:cx="1832.4672"
     inkscape:cy="315.72318"
     inkscape:window-width="1920"
     inkscape:window-height="991"
     inkscape:window-x="-9"
     inkscape:window-y="-9"
     inkscape:window-maximized="1"
     inkscape:current-layer="layer1" />
  <defs
     id="defs1">
    <inkscape:path-effect
       effect="fillet_chamfer"
       id="path-effect43"
       is_visible="true"
       lpeversion="1"
       nodesatellites_param="F,0,0,1,0,2.092017,0,1 @ F,0,0,1,0,1.96596,0,1 @ F,0,0,1,0,1.5658476,0,1 @ F,0,0,1,0,1.6510623,0,1 @ F,0,0,1,0,0,0,1 @ F,0,0,1,0,0,0,1 @ F,0,0,1,0,2.4723556,0,1 @ F,0,0,1,0,2.113359,0,1 @ F,0,0,1,0,1.3839465,0,1 @ F,0,0,1,0,1.609772,0,1 @ F,0,0,1,0,0,0,1 @ F,0,0,1,0,0,0,1"
       radius="0"
       unit="px"
       method="auto"
       mode="F"
       chamfer_steps="1"
       flexible="false"
       use_knot_distance="true"
       apply_no_radius="true"
       apply_with_radius="true"
       only_selected="false"
       hide_knots="false" />
    <inkscape:path-effect
       effect="fillet_chamfer"
       id="path-effect21"
       is_visible="true"
       lpeversion="1"
       nodesatellites_param="F,0,0,1,0,0,0,1 @ F,0,0,1,0,0,0,1 @ F,0,1,1,0,0.49863479,0,1 @ F,0,0,1,0,0.49863479,0,1 @ F,0,0,1,0,0,0,1 @ F,0,0,1,0,0,0,1 @ F,0,0,1,0,0.65604423,0,1 @ F,0,0,1,0,0.48423686,0,1 @ F,0,0,1,0,0,0,1 @ F,0,0,1,0,0,0,1 @ F,0,0,1,0,0,0,1"
       radius="0"
       unit="px"
       method="auto"
       mode="F"
       chamfer_steps="1"
       flexible="false"
       use_knot_distance="true"
       apply_no_radius="true"
       apply_with_radius="true"
       only_selected="false"
       hide_knots="false" />
    <rect
       x="158.10774"
       y="197.1581"
       width="273.568"
       height="94.025381"
       id="rect41" />
    <inkscape:path-effect
       effect="fillet_chamfer"
       id="path-effect20"
       is_visible="true"
       lpeversion="1"
       nodesatellites_param="F,0,0,1,0,3.9529043,0,1 @ F,0,0,1,0,3.9241813,0,1 @ F,0,0,1,0,0,0,1 @ F,0,0,1,0,0,0,1 @ F,0,0,1,0,0,0,1 @ F,0,0,1,0,1.0132075,0,1 @ F,0,0,1,0,1.5466981,0,1 @ F,0,0,1,0,1.2504717,0,1 @ F,0,0,1,0,2.0613494,0,1 @ F,0,0,1,0,1.497185,0,1 @ F,0,0,1,0,0.9025994,0,1 @ F,0,0,1,0,0,0,1 @ F,0,0,1,0,0,0,1 @ F,0,0,1,0,0,0,1"
       radius="0"
       unit="px"
       method="auto"
       mode="F"
       chamfer_steps="1"
       flexible="false"
       use_knot_distance="true"
       apply_no_radius="true"
       apply_with_radius="true"
       only_selected="false"
       hide_knots="false" />
    <inkscape:path-effect
       effect="fillet_chamfer"
       id="path-effect18"
       is_visible="true"
       lpeversion="1"
       nodesatellites_param="F,0,0,1,0,3.9529043,0,1 @ F,0,0,1,0,3.9241813,0,1 @ F,0,0,1,0,0,0,1 @ F,0,0,1,0,0,0,1 @ F,0,0,1,0,0,0,1 @ F,0,0,1,0,1.0132075,0,1 @ F,0,0,1,0,1.5466981,0,1 @ F,0,0,1,0,1.2504717,0,1 @ F,0,0,1,0,2.0613494,0,1 @ F,0,0,1,0,1.497185,0,1 @ F,0,0,1,0,0.9025994,0,1 @ F,0,0,1,0,0,0,1 @ F,0,0,1,0,0,0,1 @ F,0,0,1,0,0,0,1"
       radius="0"
       unit="px"
       method="auto"
       mode="F"
       chamfer_steps="1"
       flexible="false"
       use_knot_distance="true"
       apply_no_radius="true"
       apply_with_radius="true"
       only_selected="false"
       hide_knots="false" />
    <inkscape:path-effect
       effect="fillet_chamfer"
       id="path-effect17"
       is_visible="true"
       lpeversion="1"
       nodesatellites_param="F,0,0,1,0,0,0,1 @ F,0,0,1,0,0,0,1 @ F,0,0,1,0,0,0,1 @ F,0,0,1,0,0,0,1 @ F,0,0,1,0,0,0,1 @ F,0,0,1,0,0,0,1 @ F,0,0,1,0,0,0,1 @ F,0,0,1,0,0,0,1 @ F,0,0,1,0,0,0,1 @ F,0,0,1,0,0,0,1 @ F,0,0,1,0,0,0,1 @ F,0,0,1,0,0,0,1 @ F,0,0,1,0,2.035657,0,1"
       radius="0"
       unit="px"
       method="auto"
       mode="F"
       chamfer_steps="1"
       flexible="false"
       use_knot_distance="true"
       apply_no_radius="true"
       apply_with_radius="true"
       only_selected="false"
       hide_knots="false" />
    <inkscape:path-effect
       effect="fillet_chamfer"
       id="path-effect18-8"
       is_visible="true"
       lpeversion="1"
       nodesatellites_param="F,0,0,1,0,6.0170165,0,1 @ F,0,0,1,0,6.2635084,0,1 @ F,0,0,1,0,0,0,1 @ F,0,0,1,0,0,0,1 @ F,0,0,1,0,0,0,1 @ F,0,0,1,0,1.0132075,0,1 @ F,0,0,1,0,1.5466981,0,1 @ F,0,0,1,0,8.5282425,0,1 @ F,0,0,1,0,9.2857421,0,1 @ F,0,0,1,0,1.497185,0,1 @ F,0,0,1,0,0.9025994,0,1 @ F,0,0,1,0,0,0,1 @ F,0,0,1,0,0,0,1 @ F,0,0,1,0,0,0,1"
       radius="0"
       unit="px"
       method="auto"
       mode="F"
       chamfer_steps="1"
       flexible="false"
       use_knot_distance="true"
       apply_no_radius="true"
       apply_with_radius="true"
       only_selected="false"
       hide_knots="false" />
  </defs>
  <g
     inkscape:label="Laag 1"
     inkscape:groupmode="layer"
     id="layer1">
    <g
       id="g44"
       transform="rotate(9.1455191,143.07537,142.69244)"
       style="stroke-width:0.2;stroke-dasharray:none;stroke:#000000;stroke-opacity:1">
      <circle
         style="fill:none;stroke:#000000;stroke-width:0.2;stroke-linecap:round;stroke-dasharray:none;stroke-dashoffset:0;stroke-opacity:1;paint-order:stroke markers fill"
         id="path5-1"
         cx="44.560699"
         cy="191.80554"
         r="0.5"
         transform="rotate(-29.884834)" />
      <circle
         style="fill:none;stroke:#000000;stroke-width:0.2;stroke-linecap:round;stroke-dasharray:none;stroke-dashoffset:0;stroke-opacity:1;paint-order:stroke markers fill"
         id="circle15"
         cx="44.560699"
         cy="198.80554"
         r="0.5"
         transform="rotate(-29.884834)" />
    </g>
    <path
       d="m 118.12501,160 h -0.2875 c -1.08139,0 -1.11955,-1.44524 -1.25157,-1.965 -0.0394,-0.5218 -0.0769,-1.50937 -0.0693,-1.82217 0.0153,-0.6256 0.25019,-1.342 0.25019,-1.342 0,0 -0.18999,-1.25833 -1.4002,-1.25833 -1.21016,0 -1.3998,1.25833 -1.3998,1.25833 0,0 0.2345,0.7164 0.24981,1.342 0.008,0.3128 -0.002,1.30324 -0.0693,1.82217 -0.12532,0.9654 -0.60566,1.965 -1.31404,1.965 H 10 V 10 h 520 v 150 z"
       style="fill:none;stroke:#000000;stroke-width:0.2;stroke-linecap:round;stroke-dasharray:none;stroke-dashoffset:4.00001;stroke-opacity:1;paint-order:stroke markers fill"
       id="path1"
       sodipodi:nodetypes="cccscsccccccccc" />
    <g
       id="g41"
       transform="translate(164.04171,-11.813794)"
       style="stroke:#000000;stroke-opacity:1;stroke-width:0.2;stroke-dasharray:none"
       inkscape:export-filename="TEST_V3"
       inkscape:export-xdpi="96"
       inkscape:export-ydpi="96">
      <rect
         style="fill:none;stroke:#000000;stroke-width:0.2;stroke-linecap:round;stroke-dasharray:none;stroke-dashoffset:0;stroke-opacity:1;paint-order:stroke markers fill"
         id="rect47"
         width="1.7179788"
         height="4.717979"
         x="-112.97498"
         y="289.65146"
         transform="rotate(-90)" />
      <rect
         style="fill:none;stroke:#000000;stroke-width:0.2;stroke-linecap:round;stroke-dasharray:none;stroke-dashoffset:0;stroke-opacity:1;paint-order:stroke markers fill"
         id="rect48"
         width="1.7179788"
         height="4.717979"
         x="-82.283295"
         y="289.65146"
         transform="rotate(-90)" />
      <rect
         style="fill:none;stroke:#000000;stroke-width:0.2;stroke-linecap:round;stroke-dasharray:none;stroke-dashoffset:0;stroke-opacity:1;paint-order:stroke markers fill"
         id="rect49"
         width="1.7179788"
         height="4.717979"
         x="-112.97498"
         y="315.5806"
         transform="rotate(-90)" />
      <rect
         style="fill:none;stroke:#000000;stroke-width:0.2;stroke-linecap:round;stroke-dasharray:none;stroke-dashoffset:0;stroke-opacity:1;paint-order:stroke markers fill"
         id="rect50"
         width="1.7179788"
         height="4.717979"
         x="-82.283295"
         y="315.5806"
         transform="rotate(-90)" />
      <rect
         style="fill:none;stroke:#000000;stroke-width:0.2;stroke-linecap:round;stroke-dasharray:none;stroke-dashoffset:0;stroke-opacity:1;paint-order:stroke markers fill"
         id="rect53"
         width="1.7179788"
         height="4.717979"
         x="349.88873"
         y="108.16945" />
      <rect
         style="fill:none;stroke:#000000;stroke-width:0.2;stroke-linecap:round;stroke-dasharray:none;stroke-dashoffset:0;stroke-opacity:1;paint-order:stroke markers fill"
         id="rect54"
         width="1.7179788"
         height="4.717979"
         x="349.88873"
         y="80.123749" />
      <path
         style="fill:none;fill-opacity:1;stroke:#000000;stroke-width:0.2;stroke-linecap:round;stroke-dasharray:none;stroke-dashoffset:0;stroke-opacity:1;paint-order:stroke markers fill"
         d="m 35.617226,19.800277 h 13.519476 a 6.2635084,6.2635084 45 0 1 6.263508,6.263508 v 49.848742 c 0,0 0.19992,1.058333 1.69992,1.058333 1.5,0 1.5,-1.058333 1.5,-1.058333 l 0,-0.64071 a 1.0132075,1.0132075 135 0 1 1.013207,-1.013207 h 8.839965 A 1.5466981,1.5466981 45 0 1 70,75.805308 v 3.466726 a 8.5282425,8.5282425 135 0 1 -8.528243,8.528243 l -37.186015,0 A 9.2857421,9.2857421 45 0 1 15,78.514535 v -2.75874 a 1.497185,1.497185 135 0 1 1.497185,-1.497185 h 9.000346 a 0.9025994,0.9025994 45 0 1 0.902599,0.902599 v 0.751318 c 0,0 -0.06859,1.058333 1.5,1.058333 1.568589,0 1.70008,-1.058333 1.70008,-1.058333 V 25.817294 a 6.0170165,6.0170165 135 0 1 6.017016,-6.017017 z"
         id="path17-6"
         sodipodi:nodetypes="ccczcccccccczcc"
         transform="rotate(-90,199.94873,-60.634936)"
         inkscape:original-d="m 29.60021,19.800277 h 25.8 v 56.11225 c 0,0 0.19992,1.058333 1.69992,1.058333 1.5,0 1.5,-1.058333 1.5,-1.058333 V 74.25861 H 70 V 87.800277 H 15 V 74.25861 h 11.40013 v 1.653917 c 0,0 -0.06859,1.058333 1.5,1.058333 1.568589,0 1.70008,-1.058333 1.70008,-1.058333 z"
         inkscape:path-effect="#path-effect18-8" />
    </g>
    <g
       id="g33"
       transform="translate(0,-29.633357)"
       style="stroke:#000000;stroke-opacity:1;stroke-width:0.2;stroke-dasharray:none">
      <circle
         style="fill:none;stroke:#000000;stroke-width:0.2;stroke-linecap:round;stroke-dasharray:none;stroke-dashoffset:0;stroke-opacity:1;paint-order:stroke markers fill"
         id="circle17-1-8-6-8"
         cx="64.109566"
         cy="-134.09476"
         r="0.5"
         inkscape:export-filename="circle11.pdf"
         inkscape:export-xdpi="96"
         inkscape:export-ydpi="96"
         transform="rotate(90)" />
      <path
         style="fill:none;stroke:#000000;stroke-width:0.2;stroke-linecap:round;stroke-dasharray:none;stroke-dashoffset:0;stroke-opacity:1;paint-order:stroke markers fill"
         d="m 138.21324,63.597409 h -1.92887 c 0,0 -0.42893,-6.3e-4 -0.42893,0.5125 0,0.51313 0.42893,0.5125 0.42893,0.5125 h 1.92887 v 2.487 h 1.00051 v -0.69983 h 5.50001 c 0,0 2.3,0.12311 2.3,-2.3 0,-2.42311 -2.3,-2.3 -2.3,-2.3 h -5.50001 v -0.70022 l -1.00051,5e-5 z"
         id="path18-4-2-4-8"
         sodipodi:nodetypes="cczcccccczccccc" />
    </g>
    <g
       id="g34"
       transform="translate(0,-15.194661)"
       style="stroke:#000000;stroke-opacity:1;stroke-width:0.2;stroke-dasharray:none">
      <circle
         style="fill:none;stroke:#000000;stroke-width:0.2;stroke-linecap:round;stroke-dasharray:none;stroke-dashoffset:0;stroke-opacity:1;paint-order:stroke markers fill"
         id="circle33"
         cx="64.109566"
         cy="-134.09476"
         r="0.5"
         inkscape:export-filename="circle11.pdf"
         inkscape:export-xdpi="96"
         inkscape:export-ydpi="96"
         transform="rotate(90)" />
      <path
         style="fill:none;stroke:#000000;stroke-width:0.2;stroke-linecap:round;stroke-dasharray:none;stroke-dashoffset:0;stroke-opacity:1;paint-order:stroke markers fill"
         d="m 138.21324,63.597409 h -1.92887 c 0,0 -0.42893,-6.3e-4 -0.42893,0.5125 0,0.51313 0.42893,0.5125 0.42893,0.5125 h 1.92887 v 2.487 h 1.00051 v -0.69983 h 5.50001 c 0,0 2.3,0.12311 2.3,-2.3 0,-2.42311 -2.3,-2.3 -2.3,-2.3 h -5.50001 v -0.70022 l -1.00051,5e-5 z"
         id="path33"
         sodipodi:nodetypes="cczcccccczccccc" />
    </g>
    <g
       id="g35"
       transform="translate(0,-0.75596471)"
       style="stroke:#000000;stroke-opacity:1;stroke-width:0.2;stroke-dasharray:none">
      <circle
         style="fill:none;stroke:#000000;stroke-width:0.2;stroke-linecap:round;stroke-dasharray:none;stroke-dashoffset:0;stroke-opacity:1;paint-order:stroke markers fill"
         id="circle34"
         cx="64.109566"
         cy="-134.09476"
         r="0.5"
         inkscape:export-filename="circle11.pdf"
         inkscape:export-xdpi="96"
         inkscape:export-ydpi="96"
         transform="rotate(90)" />
      <path
         style="fill:none;stroke:#000000;stroke-width:0.2;stroke-linecap:round;stroke-dasharray:none;stroke-dashoffset:0;stroke-opacity:1;paint-order:stroke markers fill"
         d="m 138.21324,63.597409 h -1.92887 c 0,0 -0.42893,-6.3e-4 -0.42893,0.5125 0,0.51313 0.42893,0.5125 0.42893,0.5125 h 1.92887 v 2.487 h 1.00051 v -0.69983 h 5.50001 c 0,0 2.3,0.12311 2.3,-2.3 0,-2.42311 -2.3,-2.3 -2.3,-2.3 h -5.50001 v -0.70022 l -1.00051,5e-5 z"
         id="path34"
         sodipodi:nodetypes="cczcccccczccccc" />
    </g>
    <g
       id="g36"
       transform="translate(0,13.682731)"
       style="stroke:#000000;stroke-opacity:1;stroke-width:0.2;stroke-dasharray:none">
      <circle
         style="fill:none;stroke:#000000;stroke-width:0.2;stroke-linecap:round;stroke-dasharray:none;stroke-dashoffset:0;stroke-opacity:1;paint-order:stroke markers fill"
         id="circle35"
         cx="64.109566"
         cy="-134.09476"
         r="0.5"
         inkscape:export-filename="circle11.pdf"
         inkscape:export-xdpi="96"
         inkscape:export-ydpi="96"
         transform="rotate(90)" />
      <path
         style="fill:none;stroke:#000000;stroke-width:0.2;stroke-linecap:round;stroke-dasharray:none;stroke-dashoffset:0;stroke-opacity:1;paint-order:stroke markers fill"
         d="m 138.21324,63.597409 h -1.92887 c 0,0 -0.42893,-6.3e-4 -0.42893,0.5125 0,0.51313 0.42893,0.5125 0.42893,0.5125 h 1.92887 v 2.487 h 1.00051 v -0.69983 h 5.50001 c 0,0 2.3,0.12311 2.3,-2.3 0,-2.42311 -2.3,-2.3 -2.3,-2.3 h -5.50001 v -0.70022 l -1.00051,5e-5 z"
         id="path35"
         sodipodi:nodetypes="cczcccccczccccc" />
    </g>
    <g
       id="g37"
       transform="translate(0,28.121428)"
       style="stroke:#000000;stroke-opacity:1;stroke-width:0.2;stroke-dasharray:none">
      <circle
         style="fill:none;stroke:#000000;stroke-width:0.2;stroke-linecap:round;stroke-dasharray:none;stroke-dashoffset:0;stroke-opacity:1;paint-order:stroke markers fill"
         id="circle36"
         cx="64.109566"
         cy="-134.09476"
         r="0.5"
         inkscape:export-filename="circle11.pdf"
         inkscape:export-xdpi="96"
         inkscape:export-ydpi="96"
         transform="rotate(90)" />
      <path
         style="fill:none;stroke:#000000;stroke-width:0.2;stroke-linecap:round;stroke-dasharray:none;stroke-dashoffset:0;stroke-opacity:1;paint-order:stroke markers fill"
         d="m 138.21324,63.597409 h -1.92887 c 0,0 -0.42893,-6.3e-4 -0.42893,0.5125 0,0.51313 0.42893,0.5125 0.42893,0.5125 h 1.92887 v 2.487 h 1.00051 v -0.69983 h 5.50001 c 0,0 2.3,0.12311 2.3,-2.3 0,-2.42311 -2.3,-2.3 -2.3,-2.3 h -5.50001 v -0.70022 l -1.00051,5e-5 z"
         id="path36"
         sodipodi:nodetypes="cczcccccczccccc" />
    </g>
    <g
       id="g38"
       transform="translate(0,42.560124)"
       style="stroke:#000000;stroke-opacity:1;stroke-width:0.2;stroke-dasharray:none">
      <circle
         style="fill:none;stroke:#000000;stroke-width:0.2;stroke-linecap:round;stroke-dasharray:none;stroke-dashoffset:0;stroke-opacity:1;paint-order:stroke markers fill"
         id="circle37"
         cx="64.109566"
         cy="-134.09476"
         r="0.5"
         inkscape:export-filename="circle11.pdf"
         inkscape:export-xdpi="96"
         inkscape:export-ydpi="96"
         transform="rotate(90)" />
      <path
         style="fill:none;stroke:#000000;stroke-width:0.2;stroke-linecap:round;stroke-dasharray:none;stroke-dashoffset:0;stroke-opacity:1;paint-order:stroke markers fill"
         d="m 138.21324,63.597409 h -1.92887 c 0,0 -0.42893,-6.3e-4 -0.42893,0.5125 0,0.51313 0.42893,0.5125 0.42893,0.5125 h 1.92887 v 2.487 h 1.00051 v -0.69983 h 5.50001 c 0,0 2.3,0.12311 2.3,-2.3 0,-2.42311 -2.3,-2.3 -2.3,-2.3 h -5.50001 v -0.70022 l -1.00051,5e-5 z"
         id="path37"
         sodipodi:nodetypes="cczcccccczccccc" />
    </g>
    <g
       id="g39"
       transform="translate(0,56.99882)"
       style="stroke:#000000;stroke-opacity:1;stroke-width:0.2;stroke-dasharray:none">
      <circle
         style="fill:none;stroke:#000000;stroke-width:0.2;stroke-linecap:round;stroke-dasharray:none;stroke-dashoffset:0;stroke-opacity:1;paint-order:stroke markers fill"
         id="circle38"
         cx="64.109566"
         cy="-134.09476"
         r="0.5"
         inkscape:export-filename="circle11.pdf"
         inkscape:export-xdpi="96"
         inkscape:export-ydpi="96"
         transform="rotate(90)" />
      <path
         style="fill:none;stroke:#000000;stroke-width:0.2;stroke-linecap:round;stroke-dasharray:none;stroke-dashoffset:0;stroke-opacity:1;paint-order:stroke markers fill"
         d="m 138.21324,63.597409 h -1.92887 c 0,0 -0.42893,-6.3e-4 -0.42893,0.5125 0,0.51313 0.42893,0.5125 0.42893,0.5125 h 1.92887 v 2.487 h 1.00051 v -0.69983 h 5.50001 c 0,0 2.3,0.12311 2.3,-2.3 0,-2.42311 -2.3,-2.3 -2.3,-2.3 h -5.50001 v -0.70022 l -1.00051,5e-5 z"
         id="path38"
         sodipodi:nodetypes="cczcccccczccccc" />
    </g>
    <g
       id="g40"
       transform="translate(0,71.437516)"
       style="stroke:#000000;stroke-opacity:1;stroke-width:0.2;stroke-dasharray:none">
      <circle
         style="fill:none;stroke:#000000;stroke-width:0.2;stroke-linecap:round;stroke-dasharray:none;stroke-dashoffset:0;stroke-opacity:1;paint-order:stroke markers fill"
         id="circle39"
         cx="64.109566"
         cy="-134.09476"
         r="0.5"
         inkscape:export-filename="circle11.pdf"
         inkscape:export-xdpi="96"
         inkscape:export-ydpi="96"
         transform="rotate(90)" />
      <path
         style="fill:none;stroke:#000000;stroke-width:0.2;stroke-linecap:round;stroke-dasharray:none;stroke-dashoffset:0;stroke-opacity:1;paint-order:stroke markers fill"
         d="m 138.21324,63.597409 h -1.92887 c 0,0 -0.42893,-6.3e-4 -0.42893,0.5125 0,0.51313 0.42893,0.5125 0.42893,0.5125 h 1.92887 v 2.487 h 1.00051 v -0.69983 h 5.50001 c 0,0 2.3,0.12311 2.3,-2.3 0,-2.42311 -2.3,-2.3 -2.3,-2.3 h -5.50001 v -0.70022 l -1.00051,5e-5 z"
         id="path39"
         sodipodi:nodetypes="cczcccccczccccc" />
    </g>
    <text
       xml:space="preserve"
       transform="scale(0.26458333)"
       id="text41"
       style="font-size:26.6667px;font-family:'Informal Roman';-inkscape-font-specification:'Informal Roman, Normal';letter-spacing:0px;word-spacing:0px;white-space:pre;shape-inside:url(#rect41);display:inline;fill:none;fill-opacity:1;stroke:#000000;stroke-width:0.755906;stroke-linecap:round;stroke-dasharray:none;stroke-opacity:1;paint-order:stroke markers fill" />
    <text
       xml:space="preserve"
       style="font-style:normal;font-variant:normal;font-weight:normal;font-stretch:normal;font-size:7.05556px;font-family:'Bauhaus 93';-inkscape-font-specification:'Bauhaus 93, Normal';font-variant-ligatures:normal;font-variant-caps:normal;font-variant-numeric:normal;font-variant-east-asian:normal;letter-spacing:0px;word-spacing:0px;fill:none;fill-opacity:1;stroke:#000000;stroke-width:0.2;stroke-linecap:round;stroke-opacity:1;paint-order:stroke markers fill;stroke-dasharray:none"
       x="25.237892"
       y="-23.478704"
       id="text42"
       transform="rotate(90)"><tspan
         sodipodi:role="line"
         id="tspan42"
         style="font-style:normal;font-variant:normal;font-weight:normal;font-stretch:normal;font-size:7.05556px;font-family:'Bauhaus 93';-inkscape-font-specification:'Bauhaus 93, Normal';font-variant-ligatures:normal;font-variant-caps:normal;font-variant-numeric:normal;font-variant-east-asian:normal;stroke-width:0.2;stroke-dasharray:none;stroke:#000000;stroke-opacity:1"
         x="25.237892"
         y="-23.478704">Engineering Interactive Software 2025</tspan></text>
    <text
       xml:space="preserve"
       style="font-style:normal;font-variant:normal;font-weight:normal;font-stretch:normal;font-size:7.05556px;font-family:'Bauhaus 93';-inkscape-font-specification:'Bauhaus 93, Normal';font-variant-ligatures:normal;font-variant-caps:normal;font-variant-numeric:normal;font-variant-east-asian:normal;letter-spacing:0px;word-spacing:0px;fill:none;fill-opacity:1;stroke:#000000;stroke-width:0.2;stroke-linecap:round;stroke-dasharray:none;stroke-opacity:1;paint-order:stroke markers fill"
       x="25.237892"
       y="-39.353706"
       id="text43"
       transform="rotate(90)"><tspan
         sodipodi:role="line"
         id="tspan43"
         style="font-style:normal;font-variant:normal;font-weight:normal;font-stretch:normal;font-size:7.05556px;font-family:'Bauhaus 93';-inkscape-font-specification:'Bauhaus 93, Normal';font-variant-ligatures:normal;font-variant-caps:normal;font-variant-numeric:normal;font-variant-east-asian:normal;stroke:#000000;stroke-width:0.2;stroke-dasharray:none;stroke-opacity:1"
         x="25.237892"
         y="-39.353706">FTIR Touch Pad</tspan></text>
    <text
       xml:space="preserve"
       style="font-style:normal;font-variant:normal;font-weight:normal;font-stretch:normal;font-size:7.05556px;font-family:'Bauhaus 93';-inkscape-font-specification:'Bauhaus 93, Normal';font-variant-ligatures:normal;font-variant-caps:normal;font-variant-numeric:normal;font-variant-east-asian:normal;letter-spacing:0px;word-spacing:0px;fill:none;fill-opacity:1;stroke:#000000;stroke-width:0.2;stroke-linecap:round;stroke-opacity:1;paint-order:stroke markers fill;stroke-dasharray:none"
       x="109.37537"
       y="-39.353706"
       id="text44"
       transform="rotate(90)"><tspan
         sodipodi:role="line"
         id="tspan44"
         style="font-style:normal;font-variant:normal;font-weight:normal;font-stretch:normal;font-size:7.05556px;font-family:'Bauhaus 93';-inkscape-font-specification:'Bauhaus 93, Normal';font-variant-ligatures:normal;font-variant-caps:normal;font-variant-numeric:normal;font-variant-east-asian:normal;stroke-width:0.2;stroke-dasharray:none;stroke:#000000;stroke-opacity:1"
         x="109.37537"
         y="-39.353706">Ebbe Wertz</tspan></text>
    <path
       style="fill:none;fill-opacity:1;stroke:#000000;stroke-width:0.2;stroke-linecap:round;stroke-dasharray:none;stroke-opacity:1;paint-order:stroke markers fill"
       d="m 121.6793,153.44616 c 0.14023,0.37781 -0.3,0.76818 -0.3,1.17117 0,0.40297 0.42931,0.78943 0.3,1.17109 -0.10889,0.32137 -0.46115,0.61169 -0.8,0.62947 -0.39334,0.0206 -0.85423,-0.26357 -0.99999,-0.62947 -0.14914,-0.37436 0.30451,-0.76815 0.29999,-1.17109 -0.004,-0.37061 -0.41249,-0.71751 -0.3,-1.07067 0.11712,-0.36771 0.51392,-0.71495 0.89959,-0.72878 0.36575,-0.0131 0.77306,0.28517 0.90041,0.62828 z"
       id="path60"
       sodipodi:nodetypes="aaaaaaaaa" />
    <path
       style="fill:none;fill-opacity:1;stroke:#000000;stroke-width:0.2;stroke-linecap:round;stroke-dasharray:none;stroke-opacity:1;paint-order:stroke markers fill"
       d="m 128.55848,153.44616 c 0.14023,0.37781 -0.3,0.76818 -0.3,1.17117 0,0.40297 0.42931,0.78943 0.3,1.17109 -0.10889,0.32137 -0.46115,0.61169 -0.8,0.62947 -0.39334,0.0206 -0.85423,-0.26357 -0.99999,-0.62947 -0.14914,-0.37436 0.30451,-0.76815 0.29999,-1.17109 -0.004,-0.37061 -0.41249,-0.71751 -0.3,-1.07067 0.11712,-0.36771 0.51392,-0.71495 0.89959,-0.72878 0.36575,-0.0131 0.77306,0.28517 0.90041,0.62828 z"
       id="path61"
       sodipodi:nodetypes="aaaaaaaaa" />
    <path
       style="fill:none;fill-opacity:1;stroke:#000000;stroke-width:0.2;stroke-linecap:round;stroke-dasharray:none;stroke-opacity:1;paint-order:stroke markers fill"
       d="m 135.43766,153.44616 c 0.14023,0.37781 -0.3,0.76818 -0.3,1.17117 0,0.40297 0.42931,0.78943 0.3,1.17109 -0.10889,0.32137 -0.46115,0.61169 -0.8,0.62947 -0.39334,0.0206 -0.85423,-0.26357 -0.99999,-0.62947 -0.14914,-0.37436 0.30451,-0.76815 0.29999,-1.17109 -0.004,-0.37061 -0.41249,-0.71751 -0.3,-1.07067 0.11712,-0.36771 0.51392,-0.71495 0.89959,-0.72878 0.36575,-0.0131 0.77306,0.28517 0.90041,0.62828 z"
       id="path62"
       sodipodi:nodetypes="aaaaaaaaa"
       inkscape:export-filename="FINAL.pdf"
       inkscape:export-xdpi="96"
       inkscape:export-ydpi="96" />
  </g>
</svg>
